<svg class="svg-icon" style="width: 1em; height: 1em;vertical-align: middle;fill: currentColor;overflow: hidden;" viewBox="0 0 1024 1024" version="1.1" xmlns="http://www.w3.org/2000/svg"><path d="M410.112 814.08c-8.704-37.376-8.192-60.928 0-115.2 3.584-24.064 6.656-40.96 13.824-51.712 4.096-7.168-10.24-17.92-10.24-17.92s-34.816 19.456-35.84 19.456-2.048 0-2.56 0.512c-21.504 6.144-41.984 9.728-58.88 12.8h-1.024c-40.96 7.168-75.776 13.312-104.96 40.448-44.032 41.472-66.56 66.048-68.608 163.328 0 3.584 1.024 6.656 3.584 8.704 2.048 2.048 5.12 3.584 8.192 3.584h274.944c-6.656-20.48-13.312-41.984-18.432-64zM774.656 684.544c-50.176-14.848-78.848-20.48-97.792-23.552l-2.048-0.512c-21.504-3.584-26.624-5.12-37.888-14.336-1.536-1.536-5.632-7.68-9.216-12.288-14.848-7.68-32.256 10.24-29.184 17.92 3.584 8.704 7.68 19.968 10.24 34.304 13.312 69.12 8.192 74.24 5.12 116.736-2.048 25.088-8.704 50.176-11.264 74.24h269.824c6.144 0 11.264-4.608 11.776-10.24 5.12-50.688-16.384-154.112-109.568-182.272zM512 937.984c-0.512 0-1.024 0-2.048-1.024l-64-63.488c-2.56-2.56-3.584-8.192-1.536-12.8L496.64 739.328 461.824 686.08c-1.536-2.56-2.048-6.656-1.024-10.24 1.024-2.56 2.56-4.608 3.584-4.608 0.512 0 1.536-0.512 3.072-0.512 7.68-1.536 27.648-10.24 46.08-10.24 18.432 0 37.376 9.216 44.544 10.24 1.024 0 2.048 0.512 2.56 0.512 1.024 0.512 2.56 2.048 3.584 5.12 1.024 3.584 0.512 7.168-1.536 10.24l-34.304 53.248 52.224 120.832c2.048 4.096 1.024 10.24-2.048 13.312l-65.536 64.512c0-1.024-0.512-0.512-1.024-0.512zM320.512 304.128c3.584 15.872 5.632 26.624 6.656 35.84-8.192 0.512-12.288 2.048-18.432 7.68-4.608 4.096-7.168 9.728-7.168 15.872 0 45.568 4.096 101.888 23.04 111.104 2.56 1.024 5.12 2.56 7.68 3.584 12.288 5.632 19.968 9.216 23.552 16.896 12.288 29.696 59.904 126.464 158.208 126.464 100.864 0 136.704-78.848 155.648-120.832l2.56-6.144c4.096-8.704 9.216-11.264 16.384-14.336 6.144-3.072 14.336-6.656 19.456-15.36 18.944-31.232 27.648-98.816 18.432-116.736-2.56-5.12-5.12-7.168-14.336-13.824-3.072-2.048-5.632-3.584-7.68-5.632-0.512-4.608 6.144-15.872 9.216-45.056v-3.584c1.024-35.84-3.072-78.848-24.064-105.472-26.624-32.768-60.928-36.864-85.504-32.256-23.04-25.088-43.008-37.376-58.88-37.376-3.584 0-8.192-0.512-12.8-0.512-29.696-1.024-49.152-1.536-61.44 9.216-3.584 0.512-12.288 1.536-17.92 1.024-8.704-0.512-74.24 5.632-101.888 46.08-41.472 61.44-38.912 107.008-31.232 140.288l0.512 3.072z m193.536 288.256c-78.336 0-117.76-75.264-131.072-107.52-7.168-17.408-22.016-24.064-35.84-29.696-2.048-1.024-3.584-1.536-5.632-2.56-4.608-7.168-9.728-43.52-9.728-83.968 2.048-0.512 6.144-1.536 11.776-1.536h5.12l18.944 2.048-4.096-18.944c0-1.024-1.024-10.752-0.512-16.384l19.456-3.072 0.512-1.024c21.504-14.336 55.296-15.872 82.432-15.872 16.384 0 33.28 0.512 51.2 1.536 14.336 0.512 28.672 1.024 43.52 1.536h3.584c51.2 0 81.408-18.432 93.184-28.16-1.024 14.336 1.024 35.328 15.872 52.736 0.512 0.512 0.512 0.512 0.512 1.024 3.584 4.608 9.216 8.704 15.872 13.312 2.56 2.048 7.68 5.632 9.728 7.68 2.56 10.24-1.536 62.976-16.896 88.576-1.024 1.536-3.072 2.56-8.192 5.12-8.192 3.584-20.48 9.216-28.16 26.112l-2.56 5.632c-17.408 38.912-46.592 103.424-129.024 103.424z" fill="#FFF" fill-opacity="10" /></svg>